<?xml version="1.0" encoding="utf-8"?>
<!-- Generator: Adobe Illustrator 21.0.0, SVG Export Plug-In . SVG Version: 6.00 Build 0)  -->
<svg version="1.1" id="Layer_1" xmlns="http://www.w3.org/2000/svg" xmlns:xlink="http://www.w3.org/1999/xlink" x="0px" y="0px"
	 viewBox="0 0 123.6 128" style="enable-background:new 0 0 123.6 128;" xml:space="preserve">
<style type="text/css">
	.st0{fill:#00173D;}
</style>
<g>
	<path class="st0" d="M120.5,32.8l-7.9,0c-0.6-5.4-3-10.6-7.1-14.7c-4.1-4.1-9.3-6.5-14.7-7.1l0-7.9c0-1.6-1.2-3-2.7-3.1
		C86.4-0.1,85,1.2,85,2.9l0,8c-5.4,0.6-10.6,3-14.7,7.1l-2.1,2.1l6,6L65,35.4l-7.6-7.6c-1-1-2.6-1.2-3.7-0.4
		c-1.6,1.1-1.7,3.2-0.4,4.5l4.4,4.4L17.8,76.1c-4.3,4.3-4.9,10.8-1.8,15.8L5.9,101.9c-2.6,2.6-2.6,6.9,0,9.6l1.2,1.2L0,119.8v8.2
		l11.2-11.2l0.9,0.9c2.6,2.6,6.9,2.6,9.6,0l10-10c5,3.3,11.8,2.8,16.1-1.6l39.8-39.8l4.3,4.3c1,1,2.6,1.2,3.7,0.4
		c1.6-1.1,1.7-3.2,0.4-4.5l-7.6-7.6l9.3-9.3l5.7,5.7l2.1-2.1c4.1-4.1,6.5-9.3,7.1-14.7l8,0c1.7,0,3-1.4,2.9-3.1
		C123.5,33.9,122.1,32.8,120.5,32.8z M17.5,113.6c-0.4,0.4-1,0.4-1.4,0l-6.2-6.2c-0.4-0.4-0.4-1,0-1.4l9.9-9.9l7.5,7.5L17.5,113.6z
		 M77.5,68.2l-5.8-5.8c-1.1-1.1-3-1.1-4.1,0l0,0c-1.1,1.1-1.1,3,0,4.1l5.8,5.8l-6,6l-5.8-5.8c-1.1-1.1-3-1.1-4.1,0h0
		c-1.1,1.1-1.1,3,0,4.1l5.8,5.8l-6,6l-5.8-5.8c-1.1-1.1-3-1.1-4.1,0l0,0c-1.1,1.1-1.1,3,0,4.1l5.8,5.8l-6,6l-5.8-5.8
		c-1.1-1.1-3-1.1-4.1,0l0,0c-1.1,1.1-1.1,3,0,4.1l5.7,5.7c-2.7,2.2-6.7,2.1-9.2-0.5l-12-12c-2.7-2.7-2.7-7.1,0-9.8l39.8-39.8
		l21.8,21.8L77.5,68.2z M84.3,54.8L69.1,39.6l9.3-9.3l15.3,15.3L84.3,54.8z M103.3,47L76.6,20.3c7.5-5.5,18.1-4.9,24.8,1.9
		C108.2,28.9,108.8,39.5,103.3,47z"/>
	<path class="st0" d="M86.3,19.8c-1.7,1.2-1.7,3.6,0,4.8c0.9,0.6,2.3,0.6,3.2,0c1.7-1.2,1.7-3.6,0-4.8
		C88.6,19.2,87.3,19.2,86.3,19.8z"/>
	<path class="st0" d="M99.8,33.3c-1.7,1.2-1.7,3.6,0,4.8c0.9,0.6,2.3,0.6,3.2,0c1.7-1.2,1.7-3.6,0-4.8
		C102,32.6,100.7,32.6,99.8,33.3z"/>
</g>
</svg>
