<?xml version="1.0" encoding="utf-8"?>
<!-- Generator: Adobe Illustrator 21.0.0, SVG Export Plug-In . SVG Version: 6.00 Build 0)  -->
<svg version="1.1" id="Layer_1" xmlns="http://www.w3.org/2000/svg" xmlns:xlink="http://www.w3.org/1999/xlink" x="0px" y="0px"
	 viewBox="0 0 247.2 256" style="enable-background:new 0 0 247.2 256;" xml:space="preserve">
<g>
	<path d="M241,65.5l-15.8,0c-1.3-10.8-6-21.2-14.2-29.4c-8.2-8.2-18.7-12.9-29.4-14.2l0-15.8c0-3.1-2.4-6-5.5-6.1
		c-3.4-0.2-6.1,2.5-6.1,5.8l0,16.1c-10.8,1.3-21.2,6-29.4,14.2l-4.1,4.1l12.1,12.1l-18.6,18.6l-15.1-15.1c-2-2-5.2-2.5-7.5-0.9
		c-3.1,2.1-3.4,6.4-0.9,9l8.7,8.7l-79.6,79.6c-8.5,8.5-9.7,21.7-3.6,31.5l-20.2,20.2c-5.3,5.3-5.3,13.9,0,19.2l2.4,2.4L0,239.6V256
		l22.4-22.4l1.7,1.7c5.3,5.3,13.9,5.3,19.2,0l20.1-20.1c9.9,6.7,23.5,5.6,32.3-3.1l79.6-79.6l8.6,8.6c2,2,5.2,2.5,7.5,0.9
		c3.1-2.1,3.4-6.4,0.9-9l-15.3-15.3l18.6-18.6l11.4,11.4l4.1-4.1c8.2-8.2,12.9-18.7,14.2-29.4l16.1,0c3.3,0,6-2.8,5.8-6.1
		C247,67.9,244.2,65.5,241,65.5z M35.1,227.2c-0.8,0.8-2,0.8-2.7,0L20,214.8c-0.8-0.8-0.8-2,0-2.7l19.8-19.8l15.1,15.1L35.1,227.2z
		 M155.1,136.3l-11.6-11.6c-2.3-2.3-5.9-2.3-8.2,0l0,0c-2.3,2.3-2.3,5.9,0,8.2l11.6,11.6l-11.9,11.9l-11.6-11.6
		c-2.3-2.3-5.9-2.3-8.2,0h0c-2.3,2.3-2.3,5.9,0,8.2l11.6,11.6l-11.9,11.9L103.2,165c-2.3-2.3-5.9-2.3-8.2,0l0,0
		c-2.3,2.3-2.3,5.9,0,8.2l11.6,11.6l-11.9,11.9L83,185.2c-2.3-2.3-5.9-2.3-8.2,0l0,0c-2.3,2.3-2.3,5.9,0,8.2l11.5,11.5
		c-5.4,4.4-13.4,4.1-18.5-0.9l-24-24c-5.4-5.4-5.4-14.2,0-19.6l79.6-79.6l43.6,43.6L155.1,136.3z M168.7,109.6l-30.5-30.5l18.6-18.6
		L187.3,91L168.7,109.6z M206.7,93.9l-53.4-53.4c14.9-11,36.1-9.7,49.6,3.8C216.4,57.8,217.6,79,206.7,93.9z"/>
	<path d="M172.6,39.7c-3.4,2.3-3.4,7.3,0,9.6c1.9,1.3,4.5,1.3,6.4,0c3.4-2.3,3.4-7.3,0-9.6C177.2,38.4,174.5,38.4,172.6,39.7z"/>
	<path d="M199.5,66.5c-3.4,2.3-3.4,7.3,0,9.6c1.9,1.3,4.5,1.3,6.4,0c3.4-2.3,3.4-7.3,0-9.6C204,65.2,201.4,65.2,199.5,66.5z"/>
</g>
</svg>
