<?xml version="1.0" encoding="utf-8"?>
<!-- Generator: Adobe Illustrator 21.0.0, SVG Export Plug-In . SVG Version: 6.00 Build 0)  -->
<svg version="1.1" id="Layer_1" xmlns="http://www.w3.org/2000/svg" xmlns:xlink="http://www.w3.org/1999/xlink" x="0px" y="0px"
	 viewBox="0 0 30.9 32" style="enable-background:new 0 0 30.9 32;" xml:space="preserve">
<style type="text/css">
	.st0{fill:#00173D;}
</style>
<g>
	<path class="st0" d="M30.1,8.2l-2,0c-0.2-1.3-0.7-2.6-1.8-3.7c-1-1-2.3-1.6-3.7-1.8l0-2C22.7,0.4,22.4,0,22,0
		c-0.4,0-0.8,0.3-0.8,0.7l0,2c-1.3,0.2-2.6,0.7-3.7,1.8L17.1,5l1.5,1.5l-2.3,2.3L14.3,7c-0.2-0.2-0.6-0.3-0.9-0.1
		C13,7.1,13,7.7,13.3,8l1.1,1.1L4.4,19C3.4,20.1,3.2,21.7,4,23l-2.5,2.5c-0.7,0.7-0.7,1.7,0,2.4l0.3,0.3L0,29.9V32l2.8-2.8L3,29.4
		c0.7,0.7,1.7,0.7,2.4,0l2.5-2.5c1.2,0.8,2.9,0.7,4-0.4l9.9-9.9l1.1,1.1c0.2,0.2,0.6,0.3,0.9,0.1c0.4-0.3,0.4-0.8,0.1-1.1l-1.9-1.9
		l2.3-2.3l1.4,1.4l0.5-0.5c1-1,1.6-2.3,1.8-3.7l2,0c0.4,0,0.7-0.3,0.7-0.8C30.9,8.5,30.5,8.2,30.1,8.2z M4.4,28.4
		c-0.1,0.1-0.2,0.1-0.3,0l-1.5-1.5c-0.1-0.1-0.1-0.2,0-0.3L5,24l1.9,1.9L4.4,28.4z M19.4,17l-1.4-1.4c-0.3-0.3-0.7-0.3-1,0l0,0
		c-0.3,0.3-0.3,0.7,0,1l1.4,1.4l-1.5,1.5l-1.4-1.4c-0.3-0.3-0.7-0.3-1,0h0c-0.3,0.3-0.3,0.7,0,1l1.4,1.4l-1.5,1.5l-1.4-1.4
		c-0.3-0.3-0.7-0.3-1,0l0,0c-0.3,0.3-0.3,0.7,0,1l1.4,1.4l-1.5,1.5l-1.4-1.4c-0.3-0.3-0.7-0.3-1,0l0,0c-0.3,0.3-0.3,0.7,0,1l1.4,1.4
		c-0.7,0.5-1.7,0.5-2.3-0.1l-3-3c-0.7-0.7-0.7-1.8,0-2.5l9.9-9.9l5.5,5.5L19.4,17z M21.1,13.7l-3.8-3.8l2.3-2.3l3.8,3.8L21.1,13.7z
		 M25.8,11.7l-6.7-6.7c1.9-1.4,4.5-1.2,6.2,0.5C27,7.2,27.2,9.9,25.8,11.7z"/>
	<path class="st0" d="M21.6,5c-0.4,0.3-0.4,0.9,0,1.2c0.2,0.2,0.6,0.2,0.8,0c0.4-0.3,0.4-0.9,0-1.2C22.1,4.8,21.8,4.8,21.6,5z"/>
	<path class="st0" d="M24.9,8.3c-0.4,0.3-0.4,0.9,0,1.2c0.2,0.2,0.6,0.2,0.8,0c0.4-0.3,0.4-0.9,0-1.2C25.5,8.2,25.2,8.2,24.9,8.3z"
		/>
</g>
</svg>
