<?xml version="1.0" encoding="utf-8"?>
<!-- Generator: Adobe Illustrator 21.0.0, SVG Export Plug-In . SVG Version: 6.00 Build 0)  -->
<svg version="1.1" id="Layer_1" xmlns="http://www.w3.org/2000/svg" xmlns:xlink="http://www.w3.org/1999/xlink" x="0px" y="0px"
	 viewBox="0 0 46.3 48" style="enable-background:new 0 0 46.3 48;" xml:space="preserve">
<g>
	<path d="M45.2,12.3l-3,0c-0.2-2-1.1-4-2.7-5.5c-1.5-1.5-3.5-2.4-5.5-2.7l0-3c0-0.6-0.4-1.1-1-1.1c-0.6,0-1.1,0.5-1.1,1.1l0,3
		c-2,0.2-4,1.1-5.5,2.7l-0.8,0.8l2.3,2.3l-3.5,3.5l-2.8-2.8c-0.4-0.4-1-0.5-1.4-0.2c-0.6,0.4-0.6,1.2-0.2,1.7l1.6,1.6L6.7,28.5
		c-1.6,1.6-1.8,4.1-0.7,5.9l-3.8,3.8c-1,1-1,2.6,0,3.6l0.4,0.4L0,44.9V48l4.2-4.2l0.3,0.3c1,1,2.6,1,3.6,0l3.8-3.8
		c1.9,1.3,4.4,1.1,6-0.6l14.9-14.9l1.6,1.6c0.4,0.4,1,0.5,1.4,0.2c0.6-0.4,0.6-1.2,0.2-1.7l-2.9-2.9l3.5-3.5l2.1,2.1l0.8-0.8
		c1.5-1.5,2.4-3.5,2.7-5.5l3,0c0.6,0,1.1-0.5,1.1-1.1C46.3,12.7,45.8,12.3,45.2,12.3z M6.6,42.6c-0.1,0.1-0.4,0.1-0.5,0l-2.3-2.3
		c-0.1-0.1-0.1-0.4,0-0.5l3.7-3.7l2.8,2.8L6.6,42.6z M29.1,25.6l-2.2-2.2c-0.4-0.4-1.1-0.4-1.5,0l0,0c-0.4,0.4-0.4,1.1,0,1.5
		l2.2,2.2l-2.2,2.2l-2.2-2.2c-0.4-0.4-1.1-0.4-1.5,0l0,0c-0.4,0.4-0.4,1.1,0,1.5l2.2,2.2l-2.2,2.2l-2.2-2.2c-0.4-0.4-1.1-0.4-1.5,0
		l0,0c-0.4,0.4-0.4,1.1,0,1.5l2.2,2.2l-2.2,2.2l-2.2-2.2c-0.4-0.4-1.1-0.4-1.5,0l0,0c-0.4,0.4-0.4,1.1,0,1.5l2.2,2.2
		c-1,0.8-2.5,0.8-3.5-0.2l-4.5-4.5c-1-1-1-2.7,0-3.7l14.9-14.9l8.2,8.2L29.1,25.6z M31.6,20.6l-5.7-5.7l3.5-3.5l5.7,5.7L31.6,20.6z
		 M38.7,17.6l-10-10c2.8-2.1,6.8-1.8,9.3,0.7C40.6,10.8,40.8,14.8,38.7,17.6z"/>
	<path d="M32.4,7.4c-0.6,0.4-0.6,1.4,0,1.8c0.4,0.2,0.8,0.2,1.2,0c0.6-0.4,0.6-1.4,0-1.8C33.2,7.2,32.7,7.2,32.4,7.4z"/>
	<path d="M37.4,12.5c-0.6,0.4-0.6,1.4,0,1.8c0.4,0.2,0.8,0.2,1.2,0c0.6-0.4,0.6-1.4,0-1.8C38.3,12.2,37.8,12.2,37.4,12.5z"/>
</g>
</svg>
