<?xml version="1.0" encoding="utf-8"?>
<!-- Generator: Adobe Illustrator 21.0.0, SVG Export Plug-In . SVG Version: 6.00 Build 0)  -->
<svg version="1.1" id="Layer_1" xmlns="http://www.w3.org/2000/svg" xmlns:xlink="http://www.w3.org/1999/xlink" x="0px" y="0px"
	 viewBox="0 0 494.3 512" style="enable-background:new 0 0 494.3 512;" xml:space="preserve">
<g>
	<path d="M482.1,131l-31.5,0c-2.5-21.5-11.9-42.4-28.4-58.8c-16.5-16.5-37.3-25.9-58.8-28.4l0-31.5c0-6.3-4.7-11.9-11-12.3
		c-6.7-0.4-12.2,5-12.2,11.6l0,32.2c-21.5,2.5-42.4,11.9-58.8,28.4l-8.2,8.2l24.1,24.1l-37.3,37.3l-30.3-30.3c-4-4-10.3-4.9-15-1.8
		c-6.3,4.2-6.9,12.8-1.8,17.9l17.5,17.5L71.2,304.3c-17.1,17.1-19.4,43.4-7.2,63l-40.5,40.5c-10.6,10.6-10.6,27.8,0,38.4l4.7,4.7
		L0,479.1V512l44.7-44.7l3.5,3.5c10.6,10.6,27.8,10.6,38.4,0l40.2-40.2c19.8,13.4,47,11.3,64.5-6.2l159.1-159.1l17.2,17.2
		c4,4,10.3,4.9,15,1.8c6.3-4.2,6.9-12.8,1.8-17.9l-30.6-30.6l37.3-37.3l22.9,22.9l8.2-8.2c16.5-16.5,25.9-37.3,28.4-58.8l32.2,0
		c6.6,0,12-5.5,11.6-12.2C494,135.7,488.4,131,482.1,131z M70.1,454.3c-1.5,1.5-4,1.5-5.5,0L40,429.7c-1.5-1.5-1.5-4,0-5.5
		l39.5-39.5l30.1,30.1L70.1,454.3z M310.1,272.7l-23.2-23.2c-4.5-4.5-11.9-4.5-16.4,0l0,0c-4.5,4.5-4.5,11.9,0,16.4l23.2,23.2
		L269.8,313l-23.2-23.2c-4.5-4.5-11.9-4.5-16.4,0h0c-4.5,4.5-4.5,11.9,0,16.4l23.2,23.2l-23.9,23.9l-23.2-23.2
		c-4.5-4.5-11.9-4.5-16.4,0l0,0c-4.5,4.5-4.5,11.9,0,16.4l23.2,23.2l-23.9,23.9L166,370.4c-4.5-4.5-11.9-4.5-16.4,0l0,0
		c-4.5,4.5-4.5,11.9,0,16.4l23,23c-10.9,8.8-26.8,8.2-36.9-1.9l-48-48c-10.8-10.8-10.8-28.4,0-39.2l159.1-159.1l87.2,87.2
		L310.1,272.7z M337.3,219.3l-61.1-61.1l37.3-37.3l61.1,61.1L337.3,219.3z M413.3,187.8L306.5,81c29.9-21.9,72.2-19.4,99.2,7.6
		C432.7,115.6,435.3,157.9,413.3,187.8z"/>
	<path d="M345.3,79.3c-6.8,4.7-6.8,14.5,0,19.2c3.8,2.6,9,2.6,12.8,0c6.8-4.7,6.8-14.5,0-19.2C354.3,76.7,349.1,76.7,345.3,79.3z"/>
	<path d="M399,133c-6.8,4.7-6.8,14.5,0,19.2c3.8,2.6,9,2.6,12.8,0c6.8-4.7,6.8-14.5,0-19.2C408,130.5,402.8,130.5,399,133z"/>
</g>
</svg>
