<?xml version="1.0" encoding="utf-8"?>
<!-- Generator: Adobe Illustrator 21.0.0, SVG Export Plug-In . SVG Version: 6.00 Build 0)  -->
<svg version="1.1" id="Layer_1" xmlns="http://www.w3.org/2000/svg" xmlns:xlink="http://www.w3.org/1999/xlink" x="0px" y="0px"
	 viewBox="0 0 61.8 64" style="enable-background:new 0 0 61.8 64;" xml:space="preserve">
<g>
	<path d="M60.3,16.4l-3.9,0c-0.3-2.7-1.5-5.3-3.5-7.4c-2.1-2.1-4.7-3.2-7.4-3.5l0-3.9C45.4,0.7,44.8,0,44,0c-0.8,0-1.5,0.6-1.5,1.5
		l0,4C39.8,5.8,37.2,7,35.2,9l-1,1l3,3l-4.7,4.7l-3.8-3.8c-0.5-0.5-1.3-0.6-1.9-0.2C26,14.2,26,15.3,26.6,16l2.2,2.2L8.9,38
		c-2.1,2.1-2.4,5.4-0.9,7.9L2.9,51c-1.3,1.3-1.3,3.5,0,4.8l0.6,0.6L0,59.9V64l5.6-5.6L6,58.8c1.3,1.3,3.5,1.3,4.8,0l5-5
		c2.5,1.7,5.9,1.4,8.1-0.8l19.9-19.9l2.1,2.1c0.5,0.5,1.3,0.6,1.9,0.2c0.8-0.5,0.9-1.6,0.2-2.2l-3.8-3.8l4.7-4.7l2.9,2.9l1-1
		c2.1-2.1,3.2-4.7,3.5-7.4l4,0c0.8,0,1.5-0.7,1.5-1.5C61.7,17,61,16.4,60.3,16.4z M8.8,56.8c-0.2,0.2-0.5,0.2-0.7,0L5,53.7
		c-0.2-0.2-0.2-0.5,0-0.7l4.9-4.9l3.8,3.8L8.8,56.8z M38.8,34.1l-2.9-2.9c-0.6-0.6-1.5-0.6-2.1,0l0,0c-0.6,0.6-0.6,1.5,0,2.1
		l2.9,2.9l-3,3l-2.9-2.9c-0.6-0.6-1.5-0.6-2.1,0h0c-0.6,0.6-0.6,1.5,0,2.1l2.9,2.9l-3,3l-2.9-2.9c-0.6-0.6-1.5-0.6-2.1,0l0,0
		c-0.6,0.6-0.6,1.5,0,2.1l2.9,2.9l-3,3l-2.9-2.9c-0.6-0.6-1.5-0.6-2.1,0l0,0c-0.6,0.6-0.6,1.5,0,2.1l2.9,2.9c-1.4,1.1-3.4,1-4.6-0.2
		l-6-6c-1.4-1.4-1.4-3.5,0-4.9l19.9-19.9l10.9,10.9L38.8,34.1z M42.2,27.4l-7.6-7.6l4.7-4.7l7.6,7.6L42.2,27.4z M51.7,23.5
		L38.3,10.1c3.7-2.7,9-2.4,12.4,0.9C54.1,14.5,54.4,19.7,51.7,23.5z"/>
	<path d="M43.2,9.9c-0.9,0.6-0.9,1.8,0,2.4c0.5,0.3,1.1,0.3,1.6,0c0.9-0.6,0.9-1.8,0-2.4C44.3,9.6,43.6,9.6,43.2,9.9z"/>
	<path d="M49.9,16.6c-0.9,0.6-0.9,1.8,0,2.4c0.5,0.3,1.1,0.3,1.6,0c0.9-0.6,0.9-1.8,0-2.4C51,16.3,50.4,16.3,49.9,16.6z"/>
</g>
</svg>
