<?xml version="1.0" encoding="utf-8"?>
<!-- Generator: Adobe Illustrator 21.0.0, SVG Export Plug-In . SVG Version: 6.00 Build 0)  -->
<svg version="1.1" id="Layer_1" xmlns="http://www.w3.org/2000/svg" xmlns:xlink="http://www.w3.org/1999/xlink" x="0px" y="0px"
	 viewBox="0 0 251.2 249.6" style="enable-background:new 0 0 251.2 249.6;" xml:space="preserve">
<style type="text/css">
	.st0{fill:#00173D;}
</style>
<g>
	<path class="st0" d="M213.2,48.8l-11.7,0c-0.9-8-4.4-15.8-10.6-21.9c-6.1-6.1-13.9-9.6-21.9-10.6l0-11.7c0-2.3-1.8-4.4-4.1-4.6
		c-2.5-0.1-4.6,1.9-4.6,4.3l0,12c-8,0.9-15.8,4.4-21.9,10.6l-3.1,3.1l9,9l-13.9,13.9l-11.3-11.3c-1.5-1.5-3.8-1.8-5.6-0.7
		c-2.3,1.6-2.6,4.8-0.7,6.7l6.5,6.5l-59.3,59.3c-6.4,6.4-7.2,16.2-2.7,23.5l-15.1,15.1c-3.9,3.9-3.9,10.3,0,14.3l1.8,1.8l-10.5,10.5
		v12.2l16.7-16.7l1.3,1.3c3.9,3.9,10.3,3.9,14.3,0l15-15c7.4,5,17.5,4.2,24-2.3l59.3-59.3l6.4,6.4c1.5,1.5,3.8,1.8,5.6,0.7
		c2.3-1.6,2.6-4.8,0.7-6.7l-11.4-11.4l13.9-13.9l8.5,8.5l3.1-3.1c6.1-6.1,9.6-13.9,10.6-21.9l12,0c2.5,0,4.5-2.1,4.3-4.6
		C217.6,50.6,215.5,48.8,213.2,48.8z M59.7,169.2c-0.6,0.6-1.5,0.6-2,0l-9.2-9.2c-0.6-0.6-0.6-1.5,0-2l14.7-14.7l11.2,11.2
		L59.7,169.2z M149.1,101.6l-8.6-8.6c-1.7-1.7-4.4-1.7-6.1,0l0,0c-1.7,1.7-1.7,4.4,0,6.1l8.6,8.6l-8.9,8.9l-8.6-8.6
		c-1.7-1.7-4.4-1.7-6.1,0l0,0c-1.7,1.7-1.7,4.4,0,6.1l8.6,8.6l-8.9,8.9l-8.6-8.6c-1.7-1.7-4.4-1.7-6.1,0l0,0c-1.7,1.7-1.7,4.4,0,6.1
		l8.6,8.6l-8.9,8.9l-8.6-8.6c-1.7-1.7-4.4-1.7-6.1,0l0,0c-1.7,1.7-1.7,4.4,0,6.1l8.6,8.6c-4.1,3.3-10,3.1-13.8-0.7l-17.9-17.9
		c-4-4-4-10.6,0-14.6l59.3-59.3L158,92.7L149.1,101.6z M159.3,81.7l-22.7-22.7l13.9-13.9l22.7,22.7L159.3,81.7z M187.6,70
		l-39.8-39.8c11.1-8.2,26.9-7.2,37,2.8C194.8,43.1,195.7,58.8,187.6,70z"/>
	<path class="st0" d="M162.2,29.5c-2.5,1.7-2.5,5.4,0,7.1c1.4,1,3.4,1,4.8,0c2.5-1.7,2.5-5.4,0-7.1
		C165.6,28.6,163.6,28.6,162.2,29.5z"/>
	<path class="st0" d="M182.2,49.6c-2.5,1.7-2.5,5.4,0,7.1c1.4,1,3.4,1,4.8,0c2.5-1.7,2.5-5.4,0-7.1
		C185.6,48.6,183.7,48.6,182.2,49.6z"/>
</g>
<g>
	<path class="st0" d="M7.9,249.6H0V224h7.9V249.6z"/>
	<path class="st0" d="M38.8,250c-0.5,0-1-0.1-1.5-0.2c-0.5-0.2-1.1-0.5-1.7-1.1l-15.7-14.1v15h-7.2v-21.2c0-0.8,0.1-1.6,0.4-2.2
		c0.2-0.6,0.6-1.1,1-1.5c0.4-0.4,0.9-0.7,1.4-0.8c0.5-0.2,1.1-0.3,1.6-0.3c0.5,0,1,0.1,1.5,0.2c0.5,0.2,1.1,0.5,1.7,1.1L35.9,239
		v-15h7.2v21.2c0,0.8-0.1,1.6-0.4,2.2c-0.2,0.6-0.6,1.1-1,1.5c-0.4,0.4-0.9,0.7-1.4,0.9C39.9,249.9,39.4,250,38.8,250z"/>
	<path class="st0" d="M55.4,243c1.5,0,2.8-0.1,3.8-0.3c1-0.2,1.9-0.5,2.5-0.9c0.6-0.4,1.1-0.9,1.3-1.6c0.3-0.6,0.4-1.4,0.4-2.3v-14
		h8v14c0,7.8-5.3,11.6-16,11.6h-9.6L51,243H55.4z"/>
	<path class="st0" d="M105.6,243l-5.1,6.6H75.9V224h29.7l-5.1,6.7H83.8v3.1h20.3l-4.6,5.8H83.8v3.5H105.6z"/>
	<path class="st0" d="M140.9,243l-5.1,6.6h-12.9c-2.2,0-4.3-0.3-6.2-1c-1.9-0.7-3.5-1.6-4.9-2.7c-1.4-1.2-2.4-2.5-3.2-4.1
		c-0.8-1.6-1.2-3.3-1.2-5.2c0-1.9,0.4-3.6,1.2-5.1c0.8-1.5,1.9-2.9,3.2-4c1.4-1.1,3-2,4.9-2.6c1.9-0.6,3.9-0.9,6.2-0.9h18l-5.1,6.7
		h-12.9c-1.1,0-2.1,0.2-3,0.5c-0.9,0.3-1.7,0.7-2.4,1.3c-0.7,0.5-1.2,1.2-1.6,2c-0.4,0.8-0.6,1.6-0.6,2.5c0,0.9,0.2,1.8,0.6,2.5
		c0.4,0.8,0.9,1.4,1.6,1.9s1.5,1,2.4,1.2c0.9,0.3,1.9,0.4,3,0.4H140.9z"/>
	<path class="st0" d="M175.4,224l-5.1,6.7h-9.1v18.9h-7.9v-18.9h-12l5.1-6.7H175.4z"/>
	<path class="st0" d="M192.1,223.6c6.2,0,10.9,1.1,14,3.2c3.1,2.1,4.7,5.5,4.7,10c0,4.6-1.6,7.9-4.7,10.1c-3.1,2.1-7.8,3.2-14,3.2
		c-6.3,0-11-1.1-14.1-3.2c-3.1-2.1-4.7-5.5-4.7-10.1c0-4.6,1.6-7.9,4.7-10C181.2,224.6,185.9,223.6,192.1,223.6z M192.1,243.3
		c2,0,3.7-0.1,5.1-0.2c1.4-0.2,2.5-0.5,3.3-1c0.9-0.5,1.5-1.2,1.9-2c0.4-0.9,0.6-2,0.6-3.3c0-1.4-0.2-2.5-0.6-3.4
		c-0.4-0.9-1-1.5-1.9-2c-0.9-0.5-2-0.8-3.3-1c-1.4-0.2-3.1-0.2-5.1-0.2s-3.7,0.1-5.1,0.2c-1.4,0.2-2.5,0.5-3.3,1
		c-0.9,0.5-1.5,1.1-1.9,2c-0.4,0.9-0.6,2-0.6,3.4c0,1.4,0.2,2.5,0.6,3.3c0.4,0.9,1,1.5,1.9,2c0.9,0.5,2,0.8,3.3,1
		C188.5,243.3,190.1,243.3,192.1,243.3z"/>
	<path class="st0" d="M251.2,249.6h-10.6l-5.7-6.8h-12.2v6.8h-7.9v-13.1h22.3c1.2,0,2.3-0.3,3.1-0.8c0.8-0.5,1.3-1.2,1.3-2.1
		c0-1-0.4-1.7-1.1-2.2c-0.8-0.5-1.8-0.7-3.2-0.7h-22.3l5.2-6.7h16.5c1.5,0,3,0.1,4.5,0.4c1.6,0.3,3,0.7,4.2,1.4
		c1.3,0.7,2.3,1.6,3.2,2.8c0.8,1.2,1.2,2.7,1.2,4.5c0,1-0.2,1.9-0.5,2.8c-0.3,0.9-0.7,1.7-1.3,2.4c-0.6,0.7-1.3,1.3-2.1,1.8
		c-0.8,0.5-1.8,0.9-2.8,1.1c0.4,0.3,0.9,0.8,1.5,1.3c0.5,0.5,1.2,1.2,2.1,2.1L251.2,249.6z"/>
</g>
</svg>
