<?xml version="1.0" encoding="utf-8"?>
<!-- Generator: Adobe Illustrator 21.0.0, SVG Export Plug-In . SVG Version: 6.00 Build 0)  -->
<svg version="1.1" id="Layer_1" xmlns="http://www.w3.org/2000/svg" xmlns:xlink="http://www.w3.org/1999/xlink" x="0px" y="0px"
	 viewBox="0 0 610.1 200" style="enable-background:new 0 0 610.1 200;" xml:space="preserve">
<style type="text/css">
	.st0{fill:#00173D;}
</style>
<g>
	<path class="st0" d="M188.3,51.2l-12.3,0c-1-8.4-4.7-16.6-11.1-23c-6.4-6.4-14.6-10.1-23-11.1l0-12.3c0-2.5-1.8-4.7-4.3-4.8
		c-2.6-0.1-4.8,1.9-4.8,4.5l0,12.6c-8.4,1-16.6,4.7-23,11.1l-3.2,3.2l9.4,9.4l-14.6,14.6L89.7,43.6c-1.6-1.6-4-1.9-5.8-0.7
		c-2.4,1.7-2.7,5-0.7,7l6.8,6.8l-62.2,62.2c-6.7,6.7-7.6,16.9-2.8,24.6L9.2,159.3c-4.1,4.1-4.1,10.8,0,15l1.8,1.8l-11,11V200
		l17.5-17.5l1.4,1.4c4.1,4.1,10.8,4.1,15,0l15.7-15.7c7.7,5.2,18.4,4.4,25.2-2.4l62.2-62.2l6.7,6.7c1.6,1.6,4,1.9,5.8,0.7
		c2.4-1.7,2.7-5,0.7-7l-11.9-11.9l14.6-14.6l8.9,8.9l3.2-3.2c6.4-6.4,10.1-14.6,11.1-23l12.6,0c2.6,0,4.7-2.2,4.5-4.8
		C193,53,190.8,51.2,188.3,51.2z M27.4,177.5c-0.6,0.6-1.5,0.6-2.1,0l-9.6-9.6c-0.6-0.6-0.6-1.6,0-2.1l15.4-15.4L42.8,162
		L27.4,177.5z M121.1,106.5l-9.1-9.1c-1.8-1.8-4.6-1.8-6.4,0l0,0c-1.8,1.8-1.8,4.6,0,6.4l9.1,9.1l-9.3,9.3l-9.1-9.1
		c-1.8-1.8-4.6-1.8-6.4,0l0,0c-1.8,1.8-1.8,4.6,0,6.4l9.1,9.1l-9.3,9.3l-9.1-9.1c-1.8-1.8-4.6-1.8-6.4,0l0,0c-1.8,1.8-1.8,4.6,0,6.4
		l9.1,9.1l-9.3,9.3l-9.1-9.1c-1.8-1.8-4.6-1.8-6.4,0l0,0c-1.8,1.8-1.8,4.6,0,6.4l9,9c-4.3,3.4-10.5,3.2-14.4-0.7l-18.7-18.7
		c-4.2-4.2-4.2-11.1,0-15.3l62.2-62.2l34.1,34.1L121.1,106.5z M131.8,85.7l-23.9-23.9l14.6-14.6l23.9,23.9L131.8,85.7z M161.5,73.4
		l-41.7-41.7c11.7-8.6,28.2-7.6,38.8,3C169,45.2,170,61.7,161.5,73.4z"/>
	<path class="st0" d="M134.9,31c-2.7,1.8-2.7,5.7,0,7.5c1.5,1,3.5,1,5,0c2.7-1.8,2.7-5.7,0-7.5C138.4,30,136.4,30,134.9,31z"/>
	<path class="st0" d="M155.9,52c-2.7,1.8-2.7,5.7,0,7.5c1.5,1,3.5,1,5,0c2.7-1.8,2.7-5.7,0-7.5C159.4,51,157.3,51,155.9,52z"/>
</g>
<g>
	<path class="st0" d="M240.2,119.5h-12V80.5h12V119.5z"/>
	<path class="st0" d="M287.2,120.1c-0.8,0-1.5-0.1-2.3-0.4c-0.8-0.3-1.6-0.8-2.5-1.7l-23.9-21.4v22.9h-10.9V87.2
		c0-1.3,0.2-2.4,0.6-3.3c0.4-0.9,0.9-1.7,1.5-2.3c0.6-0.6,1.3-1,2.1-1.3c0.8-0.3,1.6-0.4,2.5-0.4c0.7,0,1.5,0.1,2.2,0.4
		c0.8,0.3,1.6,0.8,2.6,1.7l23.9,21.4V80.5h11v32.2c0,1.3-0.2,2.4-0.5,3.3c-0.4,0.9-0.9,1.7-1.5,2.3c-0.6,0.6-1.3,1-2.1,1.3
		S288,120.1,287.2,120.1z"/>
	<path class="st0" d="M312.4,109.4c2.3,0,4.2-0.1,5.8-0.4c1.6-0.3,2.8-0.7,3.8-1.3c0.9-0.6,1.6-1.4,2-2.4c0.4-1,0.6-2.2,0.6-3.6
		V80.5h12.1v21.2c0,11.8-8.1,17.7-24.3,17.7h-14.5l7.9-10H312.4z"/>
	<path class="st0" d="M388.7,109.4l-7.7,10h-37.5V80.5h45.1l-7.8,10.1h-25.2v4.7h30.8l-6.9,8.8h-23.9v5.3H388.7z"/>
	<path class="st0" d="M442.4,109.4l-7.7,10h-19.6c-3.4,0-6.5-0.5-9.4-1.5c-2.9-1-5.3-2.4-7.4-4.2c-2.1-1.8-3.7-3.9-4.9-6.3
		c-1.2-2.4-1.8-5.1-1.8-7.9s0.6-5.4,1.8-7.8c1.2-2.3,2.8-4.4,4.9-6.1c2.1-1.7,4.6-3,7.4-3.9c2.9-0.9,6-1.4,9.4-1.4h27.3l-7.7,10.1
		h-19.6c-1.6,0-3.1,0.2-4.5,0.7s-2.6,1.1-3.6,2c-1,0.8-1.8,1.8-2.4,3c-0.6,1.2-0.9,2.4-0.9,3.8s0.3,2.7,0.8,3.8
		c0.6,1.1,1.4,2.1,2.4,2.9c1,0.8,2.2,1.4,3.6,1.9s2.9,0.7,4.5,0.7H442.4z"/>
	<path class="st0" d="M494.9,80.5l-7.8,10.1h-13.9v28.8h-12V90.7h-18.3l7.8-10.1H494.9z"/>
	<path class="st0" d="M520.3,79.9c9.5,0,16.6,1.6,21.3,4.8c4.7,3.2,7.1,8.3,7.1,15.2c0,7-2.4,12.1-7.1,15.3
		c-4.7,3.2-11.9,4.8-21.4,4.8c-9.5,0-16.7-1.6-21.4-4.8c-4.7-3.2-7.1-8.3-7.1-15.3c0-6.9,2.4-12,7.1-15.2
		C503.7,81.5,510.8,79.9,520.3,79.9z M520.3,110c3,0,5.6-0.1,7.7-0.4c2.1-0.3,3.8-0.7,5.1-1.5c1.3-0.7,2.2-1.8,2.8-3.1
		c0.6-1.3,0.9-3,0.9-5.1c0-2.1-0.3-3.8-0.9-5.1c-0.6-1.3-1.5-2.3-2.8-3c-1.3-0.7-3-1.2-5.1-1.5c-2.1-0.3-4.7-0.4-7.7-0.4
		s-5.6,0.1-7.7,0.4c-2.1,0.3-3.8,0.7-5.1,1.5c-1.3,0.7-2.2,1.7-2.8,3c-0.6,1.3-0.9,3-0.9,5.1c0,2.1,0.3,3.8,0.9,5.1
		c0.6,1.3,1.5,2.3,2.8,3.1c1.3,0.7,3,1.2,5.1,1.5C514.7,109.8,517.3,110,520.3,110z"/>
	<path class="st0" d="M610.1,119.5H594l-8.7-10.3h-18.5v10.3h-12V99.6h33.9c1.9,0,3.4-0.4,4.7-1.2c1.3-0.8,1.9-1.8,1.9-3.2
		c0-1.5-0.6-2.6-1.7-3.4c-1.2-0.8-2.8-1.1-4.9-1.1h-33.9l7.9-10.1h25c2.2,0,4.5,0.2,6.9,0.6c2.4,0.4,4.5,1.1,6.5,2.2
		c1.9,1,3.5,2.5,4.8,4.2c1.3,1.8,1.9,4.1,1.9,6.9c0,1.5-0.2,3-0.7,4.3c-0.5,1.4-1.1,2.6-2,3.7c-0.9,1.1-1.9,2-3.2,2.8
		c-1.3,0.8-2.7,1.3-4.3,1.6c0.7,0.5,1.4,1.1,2.2,1.9s1.9,1.8,3.3,3.2L610.1,119.5z"/>
</g>
</svg>
